<svg width="42.000000" height="33.000000" viewBox="0 0 42 33" fill="none" xmlns="http://www.w3.org/2000/svg" xmlns:xlink="http://www.w3.org/1999/xlink">
	<desc>
			Created with Pixso.
	</desc>
	<defs/>
	<path id="Vector" d="M39 9.9C38.83 8.62 38.81 6.42 39.99 5.68C40.01 5.67 40.03 5.65 40.05 5.64C41.02 5.33 41.69 4.89 41.16 4.3L26.86 0L3.7 3.21C3.7 3.21 1.05 3.59 1.29 7.71C1.41 9.96 2.12 11.06 2.73 11.6L0.83 12.17C0.3 12.76 0.98 13.19 1.94 13.5C1.96 13.52 1.98 13.54 2 13.55C3.19 14.29 3.16 16.49 2.99 17.77C-1.27 18.98 0.26 19.37 0.26 19.37L1.2 19.6C0.54 20.19 -0.11 21.32 0.01 23.45C0.25 27.57 2.43 27.85 2.43 27.85L17.58 32.78L40.45 27.24C40.45 27.24 41.98 26.85 37.72 25.64C37.55 24.36 37.53 22.16 38.72 21.42C38.74 21.41 38.75 21.39 38.77 21.37C39.74 21.06 40.41 20.63 39.89 20.04L38.89 19.74C39.55 19.34 40.55 18.3 40.71 15.58C40.81 13.72 40.33 12.62 39.76 11.98L41.73 11.5C41.73 11.5 43.26 11.11 39 9.9ZM19.87 9.85L23.71 9.06L36.71 6.38L38.65 5.99C38.03 7.12 38.06 8.67 38.16 9.66C38.18 9.89 38.21 10.1 38.23 10.25L36.11 10.78L19.7 14.86L19.87 9.85ZM3.34 13.86L5.28 14.25L17.76 16.82L18.85 17.04L22.12 17.72L22.29 22.73L5.42 18.54L3.76 18.12C3.79 17.97 3.81 17.76 3.83 17.53C3.94 16.54 3.96 14.99 3.34 13.86ZM2.59 7.52C2.57 6.42 2.76 5.63 3.16 5.22C3.41 4.97 3.7 4.91 3.91 4.91C4.02 4.91 4.09 4.93 4.1 4.93L14.08 8.18L19.05 9.8L18.89 14.85L4.93 10.94L4.19 10.73C4.16 10.73 4.12 10.72 4.1 10.72C4.04 10.71 2.66 10.59 2.59 7.52ZM17.62 30.59L2.91 26.47C2.89 26.46 2.85 26.46 2.82 26.46C2.76 26.45 1.38 26.33 1.31 23.25C1.29 22.16 1.49 21.37 1.88 20.96C2.13 20.7 2.43 20.65 2.63 20.65C2.74 20.65 2.82 20.67 2.82 20.67L17.78 25.54L17.62 30.59ZM36.88 25.4C36.9 25.63 36.93 25.83 36.96 25.99L18.43 30.6L18.59 25.58L22.55 24.77L23.14 24.91L25.33 24.2L35.44 22.12L37.37 21.72C36.75 22.86 36.78 24.41 36.88 25.4ZM37.9 18.59C37.87 18.59 37.83 18.59 37.8 18.6L36.41 18.99L23.1 22.72L22.94 17.67L27.3 16.25L37.87 12.8C37.87 12.8 38.43 12.68 38.84 13.09C39.23 13.5 39.43 14.29 39.4 15.38C39.33 18.46 37.95 18.58 37.9 18.59Z" fill="#720418" fill-opacity="1.000000" fill-rule="nonzero"/>
</svg>
