<svg width="42.000000" height="33.000000" viewBox="0 0 42 33" fill="none" xmlns="http://www.w3.org/2000/svg" xmlns:xlink="http://www.w3.org/1999/xlink">
	<desc>
			Created with Pixso.
	</desc>
	<defs/>
	<path id="Vector" d="M38.5 9.52C38.33 8.24 38.31 6.04 39.5 5.3C39.52 5.29 39.53 5.27 39.55 5.25C40.52 4.94 41.19 4.51 40.67 3.92L26.36 -0.39L3.21 2.83C3.21 2.83 0.55 3.21 0.79 7.33C0.92 9.57 1.62 10.67 2.24 11.22L0.34 11.79C-0.19 12.37 0.48 12.81 1.45 13.12C1.47 13.14 1.48 13.16 1.51 13.17C2.69 13.91 2.67 16.11 2.5 17.38C-1.76 18.59 -0.23 18.99 -0.23 18.99L0.7 19.21C0.05 19.81 -0.61 20.93 -0.48 23.07C-0.25 27.19 1.93 27.47 1.93 27.47L17.09 32.4L39.96 26.86C39.96 26.86 41.49 26.46 37.23 25.25C37.06 23.98 37.03 21.78 38.22 21.04C38.24 21.02 38.26 21 38.28 20.99C39.25 20.68 39.92 20.24 39.39 19.66L38.4 19.36C39.06 18.96 40.06 17.91 40.21 15.2C40.32 13.33 39.83 12.24 39.27 11.59L41.23 11.12C41.23 11.12 42.76 10.72 38.5 9.52ZM19.37 9.46L23.22 8.67L36.22 6L38.15 5.6C37.54 6.74 37.56 8.29 37.66 9.28C37.69 9.51 37.71 9.71 37.74 9.87L35.62 10.4L19.21 14.48L19.37 9.46ZM2.85 13.47L4.79 13.87L17.27 16.44L18.36 16.66L21.63 17.33L21.79 22.35L4.93 18.15L3.27 17.74C3.29 17.58 3.32 17.38 3.34 17.15C3.44 16.15 3.47 14.6 2.85 13.47ZM2.1 7.13C2.07 6.04 2.27 5.24 2.66 4.84C2.91 4.58 3.21 4.53 3.41 4.53C3.52 4.53 3.6 4.54 3.6 4.54L13.58 7.8L18.56 9.42L18.4 14.47L4.43 10.56L3.69 10.35C3.67 10.34 3.63 10.34 3.6 10.33C3.54 10.33 2.16 10.2 2.1 7.13ZM17.12 30.21L2.42 26.09C2.39 26.08 2.36 26.07 2.33 26.07C2.27 26.07 0.89 25.94 0.82 22.87C0.8 21.77 0.99 20.98 1.39 20.58C1.64 20.32 1.93 20.27 2.14 20.27C2.25 20.27 2.32 20.28 2.33 20.28L17.28 25.16L17.12 30.21ZM36.39 25.02C36.41 25.24 36.44 25.45 36.46 25.61L17.93 30.22L18.1 25.2L22.06 24.39L22.64 24.53L24.83 23.82L34.94 21.74L36.88 21.34C36.26 22.47 36.29 24.02 36.39 25.02ZM37.41 18.2C37.37 18.2 37.34 18.21 37.31 18.22L35.91 18.61L22.61 22.34L22.44 17.29L26.81 15.87L37.38 12.42C37.38 12.42 37.93 12.3 38.34 12.71C38.74 13.11 38.93 13.9 38.91 15C38.84 18.07 37.46 18.2 37.41 18.2Z" fill="#FFFFFF" fill-opacity="1.000000" fill-rule="nonzero"/>
</svg>
